<?xml version="1.0" encoding="utf-8"?>
<!-- Generator: Adobe Illustrator 24.3.0, SVG Export Plug-In . SVG Version: 6.00 Build 0)  -->
<svg version="1.1" id="Calque_1" xmlns="http://www.w3.org/2000/svg" xmlns:xlink="http://www.w3.org/1999/xlink" x="0px" y="0px"
	 viewBox="0 0 679.9 206.2" style="enable-background:new 0 0 679.9 206.2;" xml:space="preserve">
<style type="text/css">
	.st0{fill:#262F6F;}
	.st1{fill:#ED1D2E;}
</style>
<path class="st0" d="M561.7,35.5c-7.8,0-15.3,4.1-20,10.2h-0.2l1.9-8.5h-20.5l-13.4,67.1h21.4l7.2-35.6c1.5-7,4.1-12.8,11.9-12.8
	c4,0,7,2.2,7,6.5c0,2.7-1.2,7.2-2,11.1l-6.3,30.8h22.2l7.8-37.9c0.9-4.2,1.5-8.5,1.7-12.8C580.4,40.4,573,35.5,561.7,35.5"/>
<path class="st0" d="M428.4,104.3L446.9,12h-22.3l-6.7,35.2c-3-10.2-11.2-11.6-18.6-11.6c-19.3,0-32,17.7-32,43.2
	c0,8.1,2.8,27.3,23.6,27.3c7.4,0,13.4-2.5,17.6-11.6h0.2l-2,9.9H428.4z M400.1,87.8c-6.5,0-8.8-5.9-8.8-12c0-9.7,3.2-22.2,13-22.2
	c6.3,0,8.8,4.9,8.8,12.4C413.1,74.1,409.7,87.8,400.1,87.8"/>
<path class="st0" d="M203.6,35.4c-7.4,0-13.4,2.5-17.6,11.6h-0.2l2-9.9h-22.5l-18.5,92.3h23.1l6.7-35.2c3,10.2,11.2,11.6,18.6,11.6
	c19.2,0,31.2-18.6,31.2-44C226.3,53.7,224.3,35.4,203.6,35.4 M190.6,87.7c-6.3,0-8.8-4.9-8.8-12.4c0-8,3.2-20.8,12.8-20.8
	c6.5,0,9.1,4.9,9.1,11C203.6,75.2,200.4,87.7,190.6,87.7"/>
<path class="st0" d="M332.9,33.8c17.8,0,29.6,10.7,29.6,31c0,17.2-8.7,42.8-36.7,42.8c-16.8,0-30.4-10.6-30.4-33.1
	C295.3,53.1,308,33.8,332.9,33.8 M326.8,89c9.1,0,12.4-16.6,12.4-22.4c0-8-1.9-13.7-8.1-13.7c-9.3,0-12.6,16.6-12.6,23.5
	C318.6,81.9,320.2,89,326.8,89"/>
<path class="st0" d="M128.6,83.9c-2,4-6.2,6.5-10.6,6.4c-8.8,0-11.5-8-11.5-13.9h17.9l26.4,0c1-3.8,1.5-7.6,1.6-11.5
	c0-21.8-14.1-31.8-28.5-31.8c-16.1,0-38.2,11.5-38.2,43.2c0,15.4,9.4,31.9,30.7,31.9c26.1,0,30.1-16.7,31.9-22.2l0.6-2.1H128.6z
	 M122.3,50.1c7,0,10.5,4.7,10.5,10.5c0,0.9-0.1,1.7-0.3,2.5H108C110.1,54.9,114.9,50.1,122.3,50.1"/>
<path class="st0" d="M484.7,83.9c-2,4-6.2,6.5-10.6,6.4c-8.8,0-11.5-8-11.5-13.9h17.9l26.4,0c1-3.8,1.5-7.6,1.6-11.5
	c0-21.8-14.1-31.8-28.5-31.8c-16.1,0-38.2,11.5-38.2,43.2c0,15.4,9.4,31.9,30.7,31.9c26.1,0,30.1-16.7,31.9-22.2l0.6-2.1H484.7z
	 M478.4,50.1c7,0,10.5,4.7,10.5,10.5c0,0.9-0.1,1.7-0.3,2.5h-24.5C466.2,54.9,471,50.1,478.4,50.1"/>
<path class="st0" d="M293,56.3c1.3-18.1-14.4-23-27.4-23c-14.8,0-30.7,7.1-30.7,26.4c0,7.4,3.2,11.5,6.9,13.9v0
	c3,1.8,6.3,2.9,9.8,3.4c1.1,0.2,2.1,0.4,3.1,0.6c7.1,1.3,11.9,2.1,11.9,6.3c0,2.7-1.5,6.2-6.8,6.2c-2.6,0-5.4-0.4-6.8-1.6
	c-1.4-1.4-2.1-3.9-2.1-6.6h-21.5c-0.5,20.2,16,25.3,29.2,25.3c18.9,0,31.1-11.1,31.1-26.6c0-8.7-3.3-13.6-9.9-16.7v0
	c-3.5-1.6-7.3-2.7-11.1-3.3c-0.2,0-0.5-0.1-0.7-0.1c-1.4-0.2-2.8-0.5-4.3-0.7c-3.1-0.4-5.8-1.5-5.8-5.1c0-4,3.7-6,6.9-6
	c2,0,4.9,0.6,6.2,2.2c1.4,1.6,1.4,2.9,1.2,5.5L293,56.3L293,56.3z"/>
<path class="st0" d="M62.8,0h-42L0,104h22.6l7.1-35.5h19.5c23.6,0,41.5-16,41.5-37.1C90.8,10.8,81.1,0,62.8,0 M50.5,45.4H34.4
	l5.1-24.5h14.2c3.7,0,15.1,0,15.1,11C68.8,40.9,62.6,45.4,50.5,45.4"/>
<path class="st0" d="M593.4,80.5c-0.4,1.8-0.7,3.4-1,5.1l-3.8,18.6h22.3l9.1-44.8l1.4-7.2h11.5l3.3-15.1h-11.6l5.2-25.3h-22.2
	l-5.2,25.3h-10.5l-3.5,15.1h10.8L593.4,80.5z"/>
<path class="st1" d="M679.9,85c-0.1,0.5-0.2,1-0.3,1.6v0c-4.2,13.8-13.1,15.7-21.4,15.7c-2.6,0-5.2-0.2-7.8-0.4
	c-2.6-0.2-5-0.4-7.4-0.4c-1.1,0-2,0-3,0.1c-0.4,0-0.7,0.1-1.1,0.1c-1.5,0.2-3,0.6-4.4,1.1c-3.4,1.3-4.2,2.8-4.2,2.8
	c-0.1-0.7,0-1.4,0.1-2.1h0c3.5-15.9,14.4-18.3,23.3-18.3c3.2,0,6.5,0.3,9.7,0.6c3,0.3,5.9,0.5,8.7,0.5c2.2,0,4.4-0.2,6.5-0.8h0
	C679,85.4,679.5,85.2,679.9,85 M649.1,119.1c-14.4,0-16.4,1.4-20.3,6.6c-22.9,35.1-65,58.7-113.1,58.7c-46.7,0-87.8-22.3-111.1-55.7
	c-3.4-4-6.6-5.2-19.4-5.2h-8.9c24.2,48.7,77.6,82.7,139.4,82.7c40.8,0,79.1-14.6,108-41c14.2-12.9,25.6-28.6,33.6-46.1L649.1,119.1z
	"/>
</svg>
