<svg width="166" height="84" fill="none" xmlns="http://www.w3.org/2000/svg"><path d="M162.387 36.306a14.147 14.147 0 0 0-2.702-6.046 4.816 4.816 0 0 0 1.213-1.204c.353-.509.606-1.08.746-1.683.145-.64.157-1.303.034-1.949a4.693 4.693 0 0 0-.749-1.825 4.85 4.85 0 0 0-1.329-1.3 4.795 4.795 0 0 0-3.564-.682 4.842 4.842 0 0 0-2.406 1.237 4.81 4.81 0 0 0-1.363 2.33 14.413 14.413 0 0 0-6.658-.331 14.348 14.348 0 0 0-7.545 3.97c-.037-.031-.067-.068-.108-.096-2.852-2.047-6.171-2.796-9.886-2.235 4.415-2.96 6.651-8.186 5.388-12.876a10.008 10.008 0 0 0-5.06-6.267c-2.865-1.516-6.414-1.722-9.735-.578-4.087 1.407-7.136 4.623-8.367 8.291a22.523 22.523 0 0 0-2.784-2.925c-4.656-4-10.72-6.988-17.539-8.643-14.157-3.432-27.34-.89-36.143 6.973-6.027 5.392-7.48 14.342-3.534 21.781 1.458 2.746 4.245 5.163 8.064 6.414-1.79.4-3.457 1.224-4.86 2.4-1.476-.594-3.328-.745-5.378-.405a2.717 2.717 0 0 0-1.69.989 2.698 2.698 0 0 0-.581 1.865l-4.643.814a2.75 2.75 0 0 0-1.715 1.048 13.495 13.495 0 0 0-4.886.1 13.67 13.67 0 0 0-2.66.831c1.227-1.366 2.149-3.64 1.625-7.43a2.724 2.724 0 0 0-1.099-1.831 2.747 2.747 0 0 0-2.085-.486L5.63 40.907a2.744 2.744 0 0 0-1.769 1.124 2.725 2.725 0 0 0-.455 2.04l1.202 6.79a2.724 2.724 0 0 0 1.19 1.804 2.745 2.745 0 0 0 2.132.38l5.558-1.299 3.87 21.681c.114.631.446 1.202.939 1.614a2.749 2.749 0 0 0 2.238.597l6.831-1.2a2.75 2.75 0 0 0 1.798-1.165 2.729 2.729 0 0 0 .406-2.098l-.232-1.082a13.584 13.584 0 0 0 12.35 1.997l.84 4.733a2.54 2.54 0 0 0 1.05 1.646 2.562 2.562 0 0 0 1.912.422l13.6-2.382 35.663-6.107a2.745 2.745 0 0 0 1.8-1.165 2.723 2.723 0 0 0 .404-2.1l-1.36-6.298c5.433.637 11.163-1.682 13.971-6.052.19.64.609 1.189 1.179 1.54.57.352 1.25.483 1.91.367l6.814-1.206a2.727 2.727 0 0 0 1.675-.998 2.712 2.712 0 0 0 .577-1.858 14.03 14.03 0 0 0 10.39 2.467c4.267-.672 6.738-2.7 8.088-4.303a14.441 14.441 0 0 0 10.728 2.19 14.4 14.4 0 0 0 9.171-5.963 14.137 14.137 0 0 0 2.287-10.717Zm-96.21 3.177c-.031.033-.064.063-.094.097-.059-.03-.118-.052-.176-.08l.27-.017Z" fill="#fff"/><path d="M107.753 28.655a.072.072 0 0 1 .038.025.072.072 0 0 1 0 .085.073.073 0 0 1-.038.025c-.963.201-4.384 1.14-11.955 5.28-4.895 2.671-7.988 1.192-8.088-1.85-.045-1.364 1.387-3.86 6.906-4.827 4.893-.858 11.65.857 13.137 1.262Z" fill="#EF67A5"/><path d="M130.809 14.328c-1.207-4.471-6.247-6.698-11.251-4.965-5.004 1.732-8.079 6.745-6.869 11.217 0 .024.018.046.024.072 0 0 1.974 6.12-1.921 8.382a.046.046 0 0 0-.02.022.05.05 0 0 0-.003.03c.002.01.007.019.015.026.008.006.017.01.027.011 1.216 0 8.436-.154 14.796-4.298 3.995-2.168 6.289-6.547 5.202-10.497Z" fill="#FFF100"/><path d="M55.66 12.5c-4.92 4.397-6.362 12.021-2.94 18.472 2.608 4.934 9.941 7.604 18.91 4.548 6.801-2.313 13.272-6.486 20.173-8.571 5.556-1.68 16.163-4.608 18.163 1.516a.03.03 0 0 0 .009.017.03.03 0 0 0 .017.01.035.035 0 0 0 .035-.011c4.023-4.566-1.035-11.478-4.3-14.278-4.742-4.074-10.577-6.644-16.397-8.054-11.112-2.692-24.415-1.916-33.67 6.352Z" fill="#EB008B"/><path d="m6.106 43.597 1.202 6.79 8.373-1.95 4.378 24.512 6.833-1.2-5.316-24.67 6.575-1.515c2.563-.704 3.137-3.2 2.706-6.306l-24.75 4.34ZM114.748 35.466c-.709-2.553-3.211-3.125-6.33-2.698l3.758 21.24 6.819-1.2s-4.184-17.121-4.247-17.342Z" fill="#10069F"/><path d="m46.657 46.142 3.795 21.317c-1.452.453-3.406.802-4.782-1.204a10.826 10.826 0 0 1-6.073 3.571c-5.932 1.206-11.737-2.668-12.963-8.662-1.226-5.994 2.584-11.817 8.516-13.026a10.783 10.783 0 0 1 6.884.878l-.344-2.001 4.967-.873Zm-10.316 5.897a6.432 6.432 0 0 0-3.28 1.77 6.379 6.379 0 0 0-1.355 6.983 6.406 6.406 0 0 0 2.382 2.859 6.442 6.442 0 0 0 7.138-.037 6.406 6.406 0 0 0 2.352-2.884 6.38 6.38 0 0 0-.624-6.003 6.413 6.413 0 0 0-4.105-2.702 6.448 6.448 0 0 0-2.508.014ZM82.926 38.537l5.35 30.226 6-1.055-2.336-10.773c5.395 2.785 12.981.935 15.702-4.284 2.793-5.364.713-12.791-5.392-15.591-4.893-2.242-11.58-.36-13.42 3.073-1.396-2.185-3.346-2.045-5.904-1.596Zm19.976 8.268a6.478 6.478 0 0 1-.45 3.747 6.506 6.506 0 0 1-2.465 2.866 6.539 6.539 0 0 1-7.248-.157 6.5 6.5 0 0 1-2.337-2.97 6.474 6.474 0 0 1 1.577-7.05 6.53 6.53 0 0 1 3.382-1.7 6.532 6.532 0 0 1 4.866 1.075 6.473 6.473 0 0 1 2.675 4.189ZM132.091 47.342a7.064 7.064 0 0 1-6.259-2.002 7.007 7.007 0 0 1-1.872-6.278 6.997 6.997 0 0 1 1.442-3.052 7.039 7.039 0 0 1 2.705-2.03 7.069 7.069 0 0 1 6.551.546 14.48 14.48 0 0 1 1.696-3.57c-2.004-1.44-4.961-2.537-9.28-1.473-5.373 1.318-10.176 6.91-8.146 14.571a11.259 11.259 0 0 0 4.748 6.641 11.336 11.336 0 0 0 8.002 1.708c2.969-.468 5.106-1.772 6.443-3.392a14.505 14.505 0 0 1-2.487-3.42 7.013 7.013 0 0 1-3.543 1.75Z" fill="#10069F"/><path d="M146.111 27.553a11.635 11.635 0 0 0-5.977 3.11 11.564 11.564 0 0 0-3.237 5.892 11.533 11.533 0 0 0 .592 6.691 11.578 11.578 0 0 0 4.221 5.238 11.65 11.65 0 0 0 12.904.144 11.583 11.583 0 0 0 4.338-5.143 11.543 11.543 0 0 0 .742-6.676 11.593 11.593 0 0 0-4.868-7.43 11.676 11.676 0 0 0-8.715-1.826Zm7.247 2.97c-1.441.055-2.78.068-4.658.608 1.019-1.612 3.432-2.062 4.658-.611v.002Zm-6.03 1.112c-2.849.706-4.882 1.6-7.129 4.006.126-3.35 4.156-6.325 7.129-4.006Zm2.474 12.504c-3.513.56-6.969-2.24-7.543-5.808 4.437-.28 12.077-6.897 12.875-3.372 1.034 4.615-1.826 8.619-5.341 9.18h.009ZM72.688 38.814a7.854 7.854 0 0 0-3.493 1.558 7.815 7.815 0 0 0-2.336 3.02l-.03-.03a8.807 8.807 0 0 0-6.78-2.22 8.823 8.823 0 0 0-3.475 1.105 8.79 8.79 0 0 0-2.727 2.414c-.869-1.345-3.093-1.661-5.273-1.3l3.743 21.145 5.893-1.044-2.591-12.374a4.162 4.162 0 0 1 .776-3.231c.285-.41.656-.755 1.087-1.011a4.14 4.14 0 0 1 1.552-.604 4.09 4.09 0 0 1 .913-.061c.751.01 1.483.245 2.1.673a4.175 4.175 0 0 1 1.843 2.787c0 .011 2.097 12.51 2.097 12.51l5.869-1.03s-2.53-12.261-2.608-12.688a3.762 3.762 0 0 1 .664-2.77 3.798 3.798 0 0 1 5.214-.918 3.771 3.771 0 0 1 1.577 2.376c.02.108 1.902 14.6 1.902 14.6l5.88-1.035-2.722-15.53a7.777 7.777 0 0 0-3.215-5.048 7.841 7.841 0 0 0-5.86-1.294ZM154.558 25.82c.07-.305.2-.594.382-.85.182-.257.41-.478.674-.65a2.446 2.446 0 0 1 2.706-.015c.257.173.478.394.652.65.183.27.307.575.363.896.065.327.06.664-.013.99-.07.31-.198.603-.378.866a2.473 2.473 0 0 1-.663.65 2.57 2.57 0 0 1-.898.359 2.45 2.45 0 0 1-1.818-.352 2.38 2.38 0 0 1-1.027-1.569 2.449 2.449 0 0 1 .015-.972l.005-.002Zm.715 1.675a1.958 1.958 0 0 0 1.241.87c.266.053.54.053.806 0 .267-.05.521-.153.746-.305.213-.15.396-.338.539-.554a2 2 0 0 0 .298-.73 2.228 2.228 0 0 0 0-.838 2.112 2.112 0 0 0-.298-.765 1.921 1.921 0 0 0-2.035-.862 1.99 1.99 0 0 0-1.297.86 1.984 1.984 0 0 0-.296.719 2.172 2.172 0 0 0 0 .827c.05.278.152.543.302.782l-.006-.004Zm1.565-2.573c.256-.073.53-.056.776.048a.756.756 0 0 1 .35.552.714.714 0 0 1-.109.593 1.014 1.014 0 0 1-.482.308l1.023 1.083-.467.093-.98-1.049-.459.091.217 1.194-.434.086-.515-2.78 1.08-.219Zm.037 1.267c.098-.022.189-.041.278-.065a.745.745 0 0 0 .217-.098.373.373 0 0 0 .139-.168.44.44 0 0 0 0-.269.358.358 0 0 0-.258-.318.687.687 0 0 0-.218-.02 1.498 1.498 0 0 0-.217.026l-.574.115.165.88.468-.083ZM45.047 76.386l-1.076-6.077 1.215-.216 1.069 6.078-1.209.215ZM49.568 75.59l-1.163-2.232-.402.072.426 2.362-1.215.217-1.087-6.077 1.739-.305c1.328-.234 1.819.394 2.023 1.555.115.65.115 1.245-.41 1.717l1.356 2.471-1.267.22Zm-1.522-4.871-.515.09.272 1.527.513-.09c.463-.081.415-.503.352-.854-.063-.35-.155-.745-.615-.673h-.007ZM53.884 74.833l-1.163-2.237-.404.071.42 2.363-1.218.216-1.073-6.076 1.739-.305c1.326-.234 1.817.394 2.023 1.555.113.65.113 1.245-.413 1.717l1.357 2.47-1.268.226Zm-1.521-4.873-.513.091.274 1.527.513-.09c.463-.08.415-.503.352-.854-.063-.35-.157-.756-.622-.674h-.004ZM55.836 74.49l-1.087-6.076 2.811-.493.193 1.082-1.593.28.244 1.375 1.371-.24.194 1.082-1.372.24.252 1.425 1.594-.281.193 1.083-2.8.524ZM62.175 72.981a1.921 1.921 0 0 1-1.246.685 1.86 1.86 0 0 1-1.398-.217c-.354-.247-.532-.65-.652-1.28l1.218-.216a.828.828 0 0 0 .217.53.498.498 0 0 0 .404.08.436.436 0 0 0 .357-.216.797.797 0 0 0 .03-.535c-.102-.578-.217-.665-.684-.769l-.827-.18c-.663-.147-.976-.433-1.145-1.372a1.726 1.726 0 0 1 .31-1.445 1.677 1.677 0 0 1 1.055-.582 1.718 1.718 0 0 1 1.267.173c.39.249.611.71.722 1.325l-1.217.217a.925.925 0 0 0-.2-.529.395.395 0 0 0-.379-.09.412.412 0 0 0-.323.216.706.706 0 0 0-.024.453c.067.385.156.483.532.567l.818.173c.826.18 1.108.483 1.304 1.583.126.626.124 1.066-.14 1.43ZM63.4 73.161l-1.075-6.076 1.215-.217 1.086 6.074-1.226.22ZM68.341 71.899a1.93 1.93 0 0 1-1.247.684 1.854 1.854 0 0 1-1.398-.217c-.352-.246-.53-.65-.641-1.277l1.217-.217a.817.817 0 0 0 .217.533.494.494 0 0 0 .402.08.436.436 0 0 0 .359-.216.801.801 0 0 0 .03-.533c-.104-.58-.217-.665-.684-.769l-.826-.18c-.663-.147-.978-.433-1.146-1.375a1.727 1.727 0 0 1 .324-1.446 1.677 1.677 0 0 1 1.054-.583 1.719 1.719 0 0 1 1.267.173c.39.25.611.71.72 1.326l-1.215.216a.936.936 0 0 0-.2-.528.404.404 0 0 0-.378-.093.419.419 0 0 0-.324.216.701.701 0 0 0-.026.453c.07.383.158.483.534.567l.818.173c.826.18 1.108.483 1.304 1.583.104.626.102 1.066-.16 1.43ZM70.628 66.749l.882 4.98-1.217.217-.883-4.98-1.025.181-.194-1.082 3.278-.585.193 1.083-1.034.186ZM73.18 71.444l-1.076-6.076 1.217-.217 1.087 6.076-1.228.217ZM78.299 70.132c-.218.307-.59.515-1.196.623l-1.765.31-1.076-6.076 1.765-.31c.609-.109 1.035-.041 1.346.167.31.207.53.65.634 1.236.07.392.094.732-.117 1.033a1.045 1.045 0 0 1-.248.253c.113.04.218.096.313.167.34.264.435.715.496 1.055.115.658.1 1.171-.152 1.542ZM76.04 65.8l-.367.064.228 1.3.37-.063c.48-.084.606-.31.525-.762-.08-.453-.267-.624-.762-.54h.006Zm.435 2.319-.385.07.276 1.57.387-.07c.487-.085.585-.34.487-.894-.098-.555-.3-.748-.772-.676h.007ZM79.646 70.307l-1.076-6.076 1.215-.217.883 4.98 1.593-.279.193 1.083-2.808.509ZM83.13 69.694l-1.073-6.076 2.808-.492.193 1.083-1.593.28.244 1.374 1.371-.24.194 1.083-1.372.26.252 1.425 1.593-.282.194 1.083-2.81.502Z" fill="#10069F"/></svg>